# Blender 3.4.1
# www.blender.org
mtllib gun.mtl
o Cube
v -0.568038 0.938493 -0.550291
v -0.763993 -1.008523 -0.465172
v 0.810918 0.938493 -0.550291
v 0.332009 -1.008523 -0.465172
v -0.568038 0.938493 0.546637
v -0.763993 -1.008523 0.461518
v 0.810918 0.938493 0.546638
v 0.332009 -1.008523 0.461518
v 0.810918 2.020629 -0.550291
v 0.810918 2.020629 0.546638
v -0.568038 2.020629 -0.550291
v -0.568038 2.020629 0.546637
v 4.498357 0.956307 -0.550291
v 4.498357 0.956307 0.546638
v 4.968578 2.020629 -0.550291
v 4.968578 2.020629 0.546638
v -0.568038 1.264929 -0.550291
v 0.810918 1.264929 -0.550291
v -0.568038 1.264929 0.546637
v 0.810918 1.264929 0.546638
v 4.968578 1.264929 -0.550291
v 4.968578 1.264929 0.546638
v -0.831021 -0.787696 -0.550291
v 0.475579 -0.787696 0.546638
v 0.475579 -0.787696 -0.550291
v -0.831022 -0.787696 0.546637
vn -0.0000 -0.0000 -1.0000
vn 0.9816 -0.1907 -0.0000
vn -0.0000 -0.0000 1.0000
vn -0.0000 -1.0000 -0.0000
vn -0.9886 0.1506 -0.0000
vn -0.0000 1.0000 -0.0000
vn -1.0000 -0.0000 -0.0000
vn 1.0000 -0.0000 -0.0000
vn 0.0048 -1.0000 -0.0000
vn 0.5487 -0.8360 -0.0000
vn -0.9569 -0.2904 -0.0000
vn -0.0000 -0.3597 -0.9331
vn -0.0000 -0.3597 0.9331
vn 0.8384 -0.5451 -0.0000
vt 0.625000 0.500000
vt 0.375000 0.500000
vt 0.625000 0.750000
vt 0.375000 0.750000
vt 0.625000 0.250000
vt 0.125000 0.500000
vt 0.375000 0.250000
vt 0.625000 1.000000
vt 0.625000 0.000000
vt 0.125000 0.750000
vt 0.375000 0.000000
vt 0.375000 1.000000
vt 0.625000 0.750000
vt 0.875000 0.750000
vt 0.625000 0.000000
vt 0.625000 0.500000
vt 0.875000 0.500000
vt 0.625000 0.250000
vt 0.625000 0.750000
vt 0.625000 0.000000
vt 0.625000 1.000000
vt 0.625000 0.750000
vt 0.625000 1.000000
vt 0.875000 0.750000
vt 0.625000 0.000000
vt 0.625000 0.500000
vt 0.625000 0.750000
vt 0.625000 0.250000
vt 0.625000 0.000000
vt 0.625000 0.750000
vt 0.625000 1.000000
vt 0.625000 0.000000
vt 0.403354 0.500000
vt 0.403355 0.000000
vt 0.403355 1.000000
vt 0.403355 0.750000
vt 0.403355 0.250000
s 0
usemtl Material
f 18/27/1 17/26/1 11/16/1 9/13/1
f 25/36/2 3/3/2 7/8/2 24/35/2
f 24/34/3 7/9/3 5/5/3 26/37/3
f 6/6/4 2/2/4 4/4/4 8/10/4
f 23/33/1 1/1/1 3/3/1 25/36/1
f 26/37/5 5/5/5 1/1/5 23/33/5
f 11/16/6 12/17/6 10/14/6 9/13/6
f 17/26/7 19/28/7 12/18/7 11/16/7
f 19/28/3 20/29/3 10/15/3 12/18/3
f 22/31/8 21/30/8 15/22/8 16/23/8
f 9/13/6 10/14/6 16/24/6 15/22/6
f 20/29/3 7/9/3 14/20/3 22/32/3
f 7/8/9 3/3/9 13/19/9 14/21/9
f 18/27/1 9/13/1 15/22/1 21/30/1
f 3/3/1 18/27/1 21/30/1 13/19/1
f 14/21/10 13/19/10 21/30/10 22/31/10
f 5/5/3 7/9/3 20/29/3 19/28/3
f 1/1/7 5/5/7 19/28/7 17/26/7
f 3/3/1 1/1/1 17/26/1 18/27/1
f 10/15/3 20/29/3 22/32/3 16/25/3
f 6/7/11 26/37/11 23/33/11 2/2/11
f 2/2/12 23/33/12 25/36/12 4/4/12
f 8/11/13 24/34/13 26/37/13 6/7/13
f 4/4/14 25/36/14 24/35/14 8/12/14
